REM DIRINDEX 1\2,1\3,1\4,1\5,1\6
REM DIRNAME folder01,folder02,folder03,folder04,folder05,folder06
TITLE ""
FILE "Disc2Track60.mp3" MP3
  TRACK 01 AUDIO
    TITLE "3:cjc030_03831"
    INDEX 01 00:00:00
  TRACK 02 AUDIO
    TITLE "0:"
    INDEX 01 00:01:11
  TRACK 03 AUDIO
    TITLE "4:cjc030_03832"
    INDEX 01 00:01:19
  TRACK 04 AUDIO
    TITLE "0:"
    INDEX 01 00:02:20
  TRACK 05 AUDIO
    TITLE "5:cjc030_03833"
    INDEX 01 00:02:30
  TRACK 06 AUDIO
    TITLE "0:"
    INDEX 01 00:03:45
  TRACK 07 AUDIO
    TITLE "3:cjc030_03834"
    INDEX 01 00:04:27
  TRACK 08 AUDIO
    TITLE "0:"
    INDEX 01 00:05:26
  TRACK 09 AUDIO
    TITLE "4:cjc030_03835"
    INDEX 01 00:05:36
  TRACK 10 AUDIO
    TITLE "0:"
    INDEX 01 00:07:05
  TRACK 11 AUDIO
    TITLE "5:cjc030_03836"
    INDEX 01 00:07:13
  TRACK 12 AUDIO
    TITLE "0:"
    INDEX 01 00:08:15
  TRACK 13 AUDIO
    TITLE "3:cjc030_03837"
    INDEX 01 00:08:72
  TRACK 14 AUDIO
    TITLE "0:"
    INDEX 01 00:10:16
  TRACK 15 AUDIO
    TITLE "4:cjc030_03838"
    INDEX 01 00:10:23
  TRACK 16 AUDIO
    TITLE "0:"
    INDEX 01 00:10:74
  TRACK 17 AUDIO
    TITLE "5:cjc030_03839"
    INDEX 01 00:11:07
  TRACK 18 AUDIO
    TITLE "0:"
    INDEX 01 00:12:24
  TRACK 19 AUDIO
    TITLE "3:cjc030_03840"
    INDEX 01 00:13:00
  TRACK 20 AUDIO
    TITLE "0:"
    INDEX 01 00:14:09
  TRACK 21 AUDIO
    TITLE "4:cjc030_03841"
    INDEX 01 00:14:19
  TRACK 22 AUDIO
    TITLE "0:"
    INDEX 01 00:15:17
  TRACK 23 AUDIO
    TITLE "5:cjc030_03842"
    INDEX 01 00:15:23
  TRACK 24 AUDIO
    TITLE "0:"
    INDEX 01 00:16:38
  TRACK 25 AUDIO
    TITLE "3:cjc030_03843"
    INDEX 01 00:17:16
  TRACK 26 AUDIO
    TITLE "0:"
    INDEX 01 00:18:41
  TRACK 27 AUDIO
    TITLE "4:cjc030_03844"
    INDEX 01 00:18:48
  TRACK 28 AUDIO
    TITLE "0:"
    INDEX 01 00:20:26
  TRACK 29 AUDIO
    TITLE "5:cjc030_03845"
    INDEX 01 00:20:32
  TRACK 30 AUDIO
    TITLE "0:"
    INDEX 01 00:21:60
  TRACK 31 AUDIO
    TITLE "6:cjc030_03846"
    INDEX 01 00:21:72
  TRACK 32 AUDIO
    TITLE "0:"
    INDEX 01 00:25:37
  TRACK 33 AUDIO
    TITLE "3:cjc030_03847"
    INDEX 01 00:26:09
  TRACK 34 AUDIO
    TITLE "0:"
    INDEX 01 00:27:32
  TRACK 35 AUDIO
    TITLE "4:cjc030_03848"
    INDEX 01 00:27:41
  TRACK 36 AUDIO
    TITLE "0:"
    INDEX 01 00:30:22
  TRACK 37 AUDIO
    TITLE "5:cjc030_03849"
    INDEX 01 00:30:30
  TRACK 38 AUDIO
    TITLE "0:"
    INDEX 01 00:31:57
  TRACK 39 AUDIO
    TITLE "6:cjc030_03850"
    INDEX 01 00:31:67
  TRACK 40 AUDIO
    TITLE "0:"
    INDEX 01 00:36:15
  TRACK 41 AUDIO
    TITLE "3:cjc030_03851"
    INDEX 01 00:36:62
  TRACK 42 AUDIO
    TITLE "0:"
    INDEX 01 00:38:08
  TRACK 43 AUDIO
    TITLE "4:cjc030_03852"
    INDEX 01 00:38:16
  TRACK 44 AUDIO
    TITLE "0:"
    INDEX 01 00:39:00
  TRACK 45 AUDIO
    TITLE "5:cjc030_03853"
    INDEX 01 00:39:09
  TRACK 46 AUDIO
    TITLE "0:"
    INDEX 01 00:40:30
  TRACK 47 AUDIO
    TITLE "3:cjc030_03854"
    INDEX 01 00:41:08
  TRACK 48 AUDIO
    TITLE "0:"
    INDEX 01 00:42:16
  TRACK 49 AUDIO
    TITLE "4:cjc030_03855"
    INDEX 01 00:42:25
  TRACK 50 AUDIO
    TITLE "0:"
    INDEX 01 00:43:54
  TRACK 51 AUDIO
    TITLE "5:cjc030_03856"
    INDEX 01 00:43:62
  TRACK 52 AUDIO
    TITLE "0:"
    INDEX 01 00:44:69
  TRACK 53 AUDIO
    TITLE "6:cjc030_03857"
    INDEX 01 00:45:06
  TRACK 54 AUDIO
    TITLE "0:"
    INDEX 01 00:51:07
  TRACK 55 AUDIO
    TITLE "3:cjc030_03858"
    INDEX 01 00:51:56
  TRACK 56 AUDIO
    TITLE "0:"
    INDEX 01 00:53:09
  TRACK 57 AUDIO
    TITLE "4:cjc030_03859"
    INDEX 01 00:53:19
  TRACK 58 AUDIO
    TITLE "0:"
    INDEX 01 00:54:15
  TRACK 59 AUDIO
    TITLE "5:cjc030_03860"
    INDEX 01 00:54:23
  TRACK 60 AUDIO
    TITLE "0:"
    INDEX 01 00:55:51
  TRACK 61 AUDIO
    TITLE "3:cjc030_03861"
    INDEX 01 00:56:37
  TRACK 62 AUDIO
    TITLE "0:"
    INDEX 01 00:57:45
  TRACK 63 AUDIO
    TITLE "4:cjc030_03862"
    INDEX 01 00:57:54
  TRACK 64 AUDIO
    TITLE "0:"
    INDEX 01 00:59:63
  TRACK 65 AUDIO
    TITLE "5:cjc030_03863"
    INDEX 01 00:59:73
  TRACK 66 AUDIO
    TITLE "0:"
    INDEX 01 01:01:09
  TRACK 67 AUDIO
    TITLE "6:cjc030_03864"
    INDEX 01 01:01:19
  TRACK 68 AUDIO
    TITLE "0:"
    INDEX 01 01:05:11
  TRACK 69 AUDIO
    TITLE "3:cjc030_03865"
    INDEX 01 01:05:58
  TRACK 70 AUDIO
    TITLE "0:"
    INDEX 01 01:06:69
  TRACK 71 AUDIO
    TITLE "4:cjc030_03866"
    INDEX 01 01:07:04
  TRACK 72 AUDIO
    TITLE "0:"
    INDEX 01 01:08:44
  TRACK 73 AUDIO
    TITLE "5:cjc030_03867"
    INDEX 01 01:08:52
  TRACK 74 AUDIO
    TITLE "0:"
    INDEX 01 01:09:63
  TRACK 75 AUDIO
    TITLE "3:cjc030_03868"
    INDEX 01 01:10:41
  TRACK 76 AUDIO
    TITLE "0:"
    INDEX 01 01:11:54
  TRACK 77 AUDIO
    TITLE "4:cjc030_03869"
    INDEX 01 01:11:60
  TRACK 78 AUDIO
    TITLE "0:"
    INDEX 01 01:12:50
  TRACK 79 AUDIO
    TITLE "5:cjc030_03870"
    INDEX 01 01:12:60
  TRACK 80 AUDIO
    TITLE "0:"
    INDEX 01 01:13:67
  TRACK 81 AUDIO
    TITLE "6:cjc030_03871"
    INDEX 01 01:14:06
  TRACK 82 AUDIO
    TITLE "0:"
    INDEX 01 01:18:35
  TRACK 83 AUDIO
    TITLE "3:cjc030_03872"
    INDEX 01 01:19:07
  TRACK 84 AUDIO
    TITLE "0:"
    INDEX 01 01:20:32
  TRACK 85 AUDIO
    TITLE "4:cjc030_03873"
    INDEX 01 01:20:40
  TRACK 86 AUDIO
    TITLE "0:"
    INDEX 01 01:21:61
  TRACK 87 AUDIO
    TITLE "5:cjc030_03874"
    INDEX 01 01:21:70
  TRACK 88 AUDIO
    TITLE "0:"
    INDEX 01 01:23:20
  TRACK 89 AUDIO
    TITLE "3:cjc030_03875"
    INDEX 01 01:23:73
  TRACK 90 AUDIO
    TITLE "0:"
    INDEX 01 01:25:27
  TRACK 91 AUDIO
    TITLE "4:cjc030_03876"
    INDEX 01 01:25:37
  TRACK 92 AUDIO
    TITLE "0:"
    INDEX 01 01:27:24
  TRACK 93 AUDIO
    TITLE "5:cjc030_03877"
    INDEX 01 01:27:34
  TRACK 94 AUDIO
    TITLE "0:"
    INDEX 01 01:28:63
  TRACK 95 AUDIO
    TITLE "6:cjc030_03878"
    INDEX 01 01:28:74
  TRACK 96 AUDIO
    TITLE "0:"
    INDEX 01 01:35:31
  TRACK 97 AUDIO
    TITLE "3:cjc030_03879"
    INDEX 01 01:36:05
  TRACK 98 AUDIO
    TITLE "0:"
    INDEX 01 01:37:34
  TRACK 99 AUDIO
    TITLE "4:cjc030_03880"
    INDEX 01 01:37:44
  TRACK 100 AUDIO
    TITLE "0:"
    INDEX 01 01:39:68
  TRACK 101 AUDIO
    TITLE "5:cjc030_03881"
    INDEX 01 01:40:03
  TRACK 102 AUDIO
    TITLE "0:"
    INDEX 01 01:41:34
